<?xml version="1.0" standalone="no"?>
<!DOCTYPE svg PUBLIC "-//W3C//DTD SVG 20010904//EN"
 "http://www.w3.org/TR/2001/REC-SVG-20010904/DTD/svg10.dtd">
<svg version="1.0" xmlns="http://www.w3.org/2000/svg"
 width="687.000000pt" height="687.000000pt" viewBox="0 0 687.000000 687.000000"
 preserveAspectRatio="xMidYMid meet">
<metadata>
Created by potrace 1.11, written by Peter Selinger 2001-2013
</metadata>
<g transform="translate(0.000000,687.000000) scale(0.100000,-0.100000)"
fill="#000000" stroke="none">
<path d="M3370 6426 c-30 -12 -295 -127 -412 -179 -21 -9 -53 -23 -70 -31 -18
-8 -179 -77 -358 -155 -409 -177 -429 -187 -455 -231 -19 -33 -20 -52 -20
-394 l-1 -358 -113 -34 c-198 -60 -325 -134 -458 -268 -90 -92 -159 -191 -202
-293 -60 -141 -58 -118 -58 -756 -1 -323 -2 -590 -4 -592 -2 -1 -202 -89 -444
-195 -242 -105 -453 -198 -470 -205 -16 -7 -78 -34 -136 -60 -114 -50 -138
-69 -155 -125 -6 -23 -10 -269 -9 -695 1 -599 3 -663 18 -692 20 -37 46 -56
147 -108 41 -21 131 -67 200 -103 69 -35 190 -98 270 -140 472 -244 637 -330
675 -354 57 -35 89 -26 312 88 114 58 222 114 238 124 17 10 129 68 250 130
121 62 252 129 290 150 39 20 116 61 173 90 146 74 148 78 150 276 0 86 3 158
5 160 4 4 291 -115 477 -199 154 -69 244 -99 276 -94 28 5 235 88 389 157 141
63 259 110 264 105 3 -4 6 -61 7 -128 1 -169 9 -183 154 -257 81 -41 323 -166
455 -235 55 -29 190 -99 300 -155 110 -57 253 -132 317 -167 81 -43 128 -63
152 -63 34 0 114 38 491 235 160 83 349 181 580 300 233 120 249 131 263 187
15 59 11 1352 -5 1388 -6 14 -19 33 -30 42 -16 14 -315 158 -574 276 -25 12
-100 46 -165 77 -65 31 -188 88 -271 127 -84 39 -154 73 -154 77 -1 3 -2 272
-3 596 -2 545 -3 594 -20 645 -53 157 -138 293 -256 408 -38 37 -132 109 -169
130 -13 8 -40 23 -60 34 -60 34 -201 85 -288 104 -46 11 -83 23 -84 29 0 5 -1
156 -1 335 -1 179 -5 337 -11 353 -19 57 -48 73 -677 364 -19 9 -87 41 -150
71 -63 29 -135 63 -160 74 -25 11 -88 41 -140 65 -195 92 -203 94 -270 69z
m215 -361 c66 -31 143 -67 170 -80 69 -33 220 -103 280 -130 28 -13 95 -44
150 -70 l100 -46 -270 -120 c-149 -66 -285 -126 -302 -135 -115 -53 -259 -114
-271 -114 -19 0 -882 383 -876 389 2 2 196 88 432 191 309 135 433 184 447
179 11 -4 74 -33 140 -64z m-779 -734 l449 -200 0 -515 c0 -297 -4 -516 -9
-516 -5 0 -88 41 -185 92 -255 133 -501 260 -617 319 l-101 52 0 483 c0 266 3
484 7 484 4 0 209 -90 456 -199z m1684 -306 l0 -485 -47 -23 c-27 -13 -120
-61 -208 -107 -351 -182 -415 -215 -532 -277 -68 -35 -124 -63 -124 -61 -1 2
-2 234 -3 516 -1 336 2 516 9 521 8 6 188 87 345 155 19 8 150 67 290 130 140
63 258 115 263 115 4 1 7 -217 7 -484z m427 -277 c185 -69 324 -192 408 -362
l44 -89 -2 -580 -2 -581 -161 -70 c-89 -39 -179 -78 -200 -87 -56 -24 -523
-228 -559 -244 -16 -7 -75 -33 -130 -56 -110 -47 -149 -78 -162 -130 -5 -19
-9 -202 -8 -408 l0 -373 -75 -35 c-410 -191 -573 -257 -613 -249 -29 6 -171
60 -252 97 -22 9 -130 59 -240 109 -110 50 -208 94 -217 97 -15 4 -18 18 -19
82 0 42 -1 209 -2 371 -2 295 -2 295 -26 329 -26 36 -55 51 -461 238 -132 61
-239 111 -485 227 l-240 113 -3 566 c-2 546 -1 568 18 620 64 171 201 313 382
396 57 25 76 33 128 47 13 3 15 -18 15 -154 -1 -86 3 -171 7 -189 16 -60 -24
-36 713 -418 411 -213 484 -251 525 -273 94 -51 106 -56 140 -53 31 2 170 69
525 256 44 23 184 95 310 160 127 65 275 143 329 172 55 29 103 53 107 53 4 0
21 17 36 37 l28 36 2 186 c1 102 2 189 2 192 1 9 69 -7 138 -33z m-3463 -1892
c107 -51 674 -315 731 -341 l50 -23 -65 -30 c-36 -17 -128 -58 -205 -92 -77
-34 -162 -72 -190 -85 -261 -116 -373 -165 -381 -165 -9 0 -150 60 -279 119
-33 15 -180 81 -328 146 -147 66 -267 122 -267 125 0 3 145 68 322 145 177 77
369 161 427 187 58 25 108 47 109 47 2 1 36 -14 76 -33z m4137 0 c72 -32 123
-56 337 -157 57 -27 105 -49 106 -49 2 0 66 -30 142 -66 77 -36 152 -71 169
-79 l29 -14 -74 -34 c-41 -20 -214 -97 -385 -172 -170 -76 -326 -145 -346
-154 -35 -17 -36 -17 -105 14 -38 18 -148 67 -244 110 -96 42 -202 89 -235
105 -33 15 -120 53 -192 85 -73 32 -133 62 -133 66 0 4 10 11 23 15 12 3 40
15 62 25 22 10 191 84 375 164 274 118 371 161 396 174 1 1 35 -14 75 -33z
m-4996 -701 c121 -53 234 -103 250 -111 17 -7 104 -47 195 -87 l165 -74 2
-516 c1 -285 -1 -517 -4 -517 -6 0 -155 75 -288 145 -44 23 -170 89 -280 145
-110 57 -231 120 -270 141 l-70 37 -1 478 c-1 264 0 482 2 486 2 3 21 -2 42
-12 20 -10 136 -62 257 -115z m4015 56 c63 -28 131 -58 150 -67 19 -9 159 -71
310 -138 l275 -122 2 -517 c1 -284 -2 -517 -6 -517 -3 0 -22 8 -41 18 -46 24
-313 163 -565 292 -110 57 -222 116 -250 130 l-50 27 -2 486 -1 486 31 -13
c18 -8 84 -37 147 -65z m-2169 17 c0 -18 1 -235 1 -482 1 -429 0 -449 -18
-460 -10 -6 -102 -54 -204 -106 -102 -53 -257 -133 -345 -179 -88 -46 -202
-106 -252 -132 l-93 -48 0 27 c-1 15 -1 248 -1 517 0 396 2 492 13 498 20 12
882 396 891 397 4 0 7 -15 8 -32z m4140 15 c3 -65 1 -944 -2 -947 -8 -6 -140
-77 -279 -148 -351 -182 -470 -243 -547 -284 l-83 -44 0 37 c-4 302 1 997 7
1003 4 4 103 49 218 100 116 51 243 108 283 126 41 19 75 34 77 34 2 0 36 15
77 34 116 54 232 105 241 105 4 1 7 -7 8 -16z"/>
</g>
</svg>
